<svg xmlns="http://www.w3.org/2000/svg" xmlns:xlink="http://www.w3.org/1999/xlink" preserveAspectRatio="xMidYMid" width="256" height="128" viewBox="0 0 256 128">
  <defs>
    <style>
      .cls-1 {
        fill: #fff;
      }

      .cls-1, .cls-2 {
        fill-rule: evenodd;
      }

      .cls-2 {
        stroke: #fff;
        stroke-width: 5px;
        fill: none;
      }
    </style>
  </defs>
  <g>
    <path d="M177.243,77.077 L151.234,97.638 L11.069,97.787 L11.139,31.378 L151.304,31.230 L177.269,52.845 L177.243,77.077 ZM159.987,53.065 C155.660,53.070 152.148,56.595 152.144,60.938 L152.136,67.928 C152.132,72.271 155.636,75.789 159.963,75.784 C164.291,75.779 167.802,72.255 167.807,67.912 L167.814,60.921 C167.819,56.578 164.315,53.061 159.987,53.065 Z" class="cls-1"/>
    <path d="M196.719,68.487 C114.907,62.806 188.886,19.104 198.460,67.613 C203.460,92.945 223.700,106.508 242.848,89.027 C261.995,71.546 237.626,37.021 237.626,37.021 " class="cls-2"/>
  </g>
</svg>
