<svg xmlns="http://www.w3.org/2000/svg" xmlns:xlink="http://www.w3.org/1999/xlink" preserveAspectRatio="xMidYMid" width="126" height="233" viewBox="0 0 126 233">
  <defs>
    <style>
      .cls-1 {
        fill: #fff;
        fill-rule: evenodd;
      }
    </style>
  </defs>
  <path d="m115.56,232.562l-69.158,0l-10.041,-47.239l80.063,0l0,-150.978l-107.867,0l0,20.169l-8.557,-40.258l0,-4.836c0,-5.203 4.217,-9.42 9.42,-9.42l106.14,0c5.203,0 9.421,4.217 9.421,9.42l0,213.722c0,5.202 -4.218,9.42 -9.421,9.42zm-51.967,-31.376c-5.524,0 -10.002,4.479 -10.002,10.003c0,5.524 4.478,10.003 10.002,10.003c5.525,0 10.003,-4.479 10.003,-10.003c0,-5.524 -4.478,-10.003 -10.003,-10.003z" class="cls-1"/>
</svg>
