<svg xmlns="http://www.w3.org/2000/svg" xmlns:xlink="http://www.w3.org/1999/xlink" preserveAspectRatio="xMidYMid" width="128" height="188" viewBox="0 0 128 188">
  <defs>
    <style>
      .cls-1 {
        fill: #000;
        opacity: 0.7;
      }

      .cls-1, .cls-2 {
        fill-rule: evenodd;
      }

      .cls-2 {
        fill: #fff;
      }
    </style>
  </defs>
  <g>
    <path d="M2.530,186.211 L2.530,72.493 L2.740,72.493 C2.905,38.357 29.937,10.734 63.812,10.734 C97.785,10.734 125.328,38.521 125.328,72.798 C125.328,75.177 125.621,77.521 125.363,79.830 L125.363,186.212 L2.530,186.211 ZM50.174,122.021 L50.174,145.257 C50.174,152.011 55.602,157.486 62.296,157.486 C68.990,157.486 74.417,152.011 74.417,145.257 L74.417,122.021 C74.417,115.267 68.990,109.792 62.296,109.792 C55.602,109.792 50.174,115.267 50.174,122.021 ZM101.691,90.225 L26.537,90.225 L26.537,70.658 L26.604,70.658 C27.705,50.886 43.938,35.192 63.811,35.193 C83.684,35.192 100.618,50.886 101.718,70.658 L101.691,90.225 Z" class="cls-1"/>
    <path d="M2.530,177.259 L2.530,63.540 L2.740,63.540 C2.905,29.404 29.937,1.782 63.812,1.782 C97.785,1.782 125.328,29.569 125.328,63.845 C125.328,66.224 125.621,68.568 125.363,70.878 L125.363,177.259 L2.530,177.259 ZM50.174,113.069 L50.174,136.305 C50.174,143.059 55.602,148.534 62.296,148.534 C68.990,148.534 74.417,143.058 74.417,136.305 L74.417,113.069 C74.417,106.315 68.990,100.840 62.296,100.840 C55.602,100.840 50.174,106.315 50.174,113.069 ZM101.691,81.272 L26.537,81.272 L26.537,61.705 L26.604,61.705 C27.705,41.933 43.938,26.240 63.811,26.240 C83.684,26.240 100.618,41.933 101.718,61.705 L101.691,81.272 Z" class="cls-2"/>
  </g>
</svg>
