<?xml version="1.0" encoding="utf-8"?>
<!-- Generator: Adobe Illustrator 19.1.0, SVG Export Plug-In . SVG Version: 6.00 Build 0)  -->
<svg version="1.1" id="Calque_1" xmlns="http://www.w3.org/2000/svg" xmlns:xlink="http://www.w3.org/1999/xlink" x="0px" y="0px"
	 viewBox="0 0 425.2 425.2" style="enable-background:new 0 0 425.2 425.2;" xml:space="preserve">
<style type="text/css">
	.st0{opacity:0.9;fill-rule:evenodd;clip-rule:evenodd;fill:url(#SVGID_1_);}
</style>
<linearGradient id="SVGID_1_" gradientUnits="userSpaceOnUse" x1="95.763" y1="360.343" x2="327.9129" y2="128.193">
	<stop  offset="0" style="stop-color:#FFFFFF;stop-opacity:0.2"/>
	<stop  offset="0.3" style="stop-color:#FFFFFF"/>
	<stop  offset="0.7" style="stop-color:#FFFFFF"/>
	<stop  offset="1" style="stop-color:#FFFFFF;stop-opacity:0.2"/>
</linearGradient>
<path class="st0" d="M102.2,366.8l0-200.4l0.4,0c0.3-60.2,48.6-108.8,109.1-108.8c60.7,0,109.9,49,109.9,109.4
	c0,4.2,0.1,199.9,0.1,199.9L102.2,366.8z M187.3,253.6v40.9c0,11.9,9.7,21.5,21.6,21.5c12,0,21.6-9.6,21.6-21.5v-40.9
	c0-11.9-9.7-21.5-21.6-21.6C197,232.1,187.3,241.7,187.3,253.6z M279.3,163.1L279.3,163.1c-2-34.8-32.2-62.5-67.6-62.5
	c-35.5,0-64.5,27.7-66.4,62.5h-0.1l0,34.5l134.2,0L279.3,163.1z"/>
</svg>
