<svg id="Groupe_1" data-name="Groupe 1" xmlns="http://www.w3.org/2000/svg" width="70" height="78" viewBox="0 0 70 78">
  <defs>
    <style>
      .cls-1 {
        fill: #ff3600;
        fill-rule: evenodd;
      }
    </style>
  </defs>
  <path id="Forme_1" data-name="Forme 1" class="cls-1" d="M3.146,60.767l0.189,0.688C3.38,61.62-.174,68.92,3.108,72.2s10.3-.567,10.464-0.526l0.676,0.172L45.614,38.6l11.281,2.42L66.988,30.942,64.31,18.076,62.852,16.62,53,26.464l-0.035-.035-4.182-4.177-0.029-.029,9.855-9.844-1.451-1.45L44.271,8.25,34.177,18.333l2.414,11.3ZM6.4,68.772a3.283,3.283,0,1,0,0-4.637A3.285,3.285,0,0,0,6.4,68.772Z"/>
</svg>
