<svg xmlns="http://www.w3.org/2000/svg" width="128" height="128" viewBox="0 0 128 128">
<defs>
    <style>
      .cls-1 {
        fill: #fff;
        fill-rule: evenodd;
      }
    </style>
  </defs>
  <path id="g" class="cls-1" d="M18.442,18.444a192.971,192.971,0,0,1,91.093,0,193.022,193.022,0,0,1,0,91.09,192.957,192.957,0,0,1-91.092,0,193,193,0,0,1,0-91.087h0ZM67.15,68.982l7.3-10.738a9.594,9.594,0,0,0,1.564-5.482V47.28q0-5.857-2.086-8.073t-7.672-2.215H60.223q-4.693,0-6.965,2.065T50.986,46v8.861h9.758V46.979a1,1,0,0,1,1.043-1.2h2.756a1,1,0,0,1,1.043,1.2v6.308L59.18,62.974a7.779,7.779,0,0,0-1.266,4.581v7.284H67.15V68.982Zm0.6,9.387H57.467v11.64H67.746V78.369Z"/>
</svg>
